<svg width="360" height="800" viewBox="0 0 360 800" fill="none" xmlns="http://www.w3.org/2000/svg">
<g clip-path="url(#clip0_161_9)">
<rect width="360" height="800" fill="#E8E8E8"/>
<path d="M18 0H341V257C341 268.046 332.046 277 321 277H38C26.9543 277 18 268.046 18 257V0Z" fill="#77B54C"/>
<path d="M51.5336 5.5768C60.8535 5.6162 72.3916 5.36331 81.6123 5.51892C81.7416 5.5211 81.8709 5.52329 82.0002 5.52547C85.7687 5.58908 89.6086 5.68092 94.2544 5.79196C94.8462 5.8061 95.4527 5.82089 96.0721 5.83564C101.579 5.96678 108.345 6.12398 117.563 6.29872C148.518 6.88546 172.925 6.49553 180.517 6.37408C195.743 6.13049 211.985 6.12534 234.148 6.11851C236.175 6.11789 238.251 6.11826 240.381 6.11742C242.106 6.11674 243.535 6.31397 243.574 6.55865C243.613 6.80343 242.247 7.00248 240.521 7.00316C238.436 7.00398 236.403 7.00472 234.423 7.00534C234.414 7.00534 234.405 7.00534 234.396 7.00534C212.094 7.01237 196.205 7.0176 181.338 7.25544C173.58 7.37954 148.574 7.77803 116.855 7.17681C107.538 7.00021 100.697 6.84239 95.1565 6.71046C94.5499 6.69602 93.9587 6.6816 93.384 6.66787C93.3704 6.6675 93.3569 6.66714 93.3434 6.66677C88.6671 6.55504 84.9889 6.46662 81.3823 6.40575C81.3056 6.40466 81.2289 6.40356 81.1522 6.40247C71.8277 6.2451 60.5097 6.50075 51.4705 6.46254C49.7449 6.45513 48.3589 6.25062 48.3765 6.00602C48.3951 5.76157 49.809 5.56968 51.5336 5.5768ZM269.559 274.332C260.56 274.656 248.59 274.62 238.019 274.476C227.375 274.33 217.742 274.069 213.209 273.908C208.777 273.751 203.853 273.7 197.978 273.669C196.63 273.661 195.233 273.655 193.788 273.649C189.013 273.628 183.702 273.604 177.871 273.534C156.453 273.277 142.489 273.266 132.516 273.29C130.465 273.294 128.556 273.301 126.77 273.307C126.767 273.307 126.764 273.307 126.761 273.307C120.019 273.33 114.988 273.347 110.362 273.246C102.127 273.066 95.4028 272.907 87.2878 272.596C76.0957 272.167 60.1545 272.218 49.7808 272.513C49.2115 272.529 48.6291 272.547 48.0398 272.563C45.0329 272.649 41.7477 272.743 38 272.838C33.6243 273.013 27.7631 271.159 24.0623 265.342C22.4438 262.754 21.6669 259.831 21.6507 257C21.6074 249.841 21.6234 243.309 21.6546 237.303C21.6679 234.753 21.6843 232.319 21.6994 229.983C21.7375 224.086 21.7718 218.808 21.7518 213.836C21.628 183.005 21.7882 165.224 22.0292 154.049C22.2146 145.454 22.4532 140.653 22.6255 137.19C22.6776 136.143 22.7243 135.218 22.761 134.348C23.0875 126.587 23.2343 119.462 23.4108 110.891C23.45 108.988 23.4909 107.009 23.5353 104.942C23.6838 98.0258 23.6581 92.8723 23.5954 88.8311C23.5679 87.0634 23.5341 85.508 23.5014 84.0412C23.5007 84.0142 23.5 83.9871 23.4993 83.96C23.4947 83.7555 23.4906 83.5526 23.4862 83.3512C23.4828 83.1992 23.4785 83.0475 23.4752 82.8956C23.4708 82.8358 23.4679 82.7823 23.4654 82.7423C23.4634 82.7106 23.462 82.6859 23.461 82.6701C23.4607 82.6671 23.4603 82.6641 23.4599 82.6611C23.4429 82.3733 23.4362 82.1256 23.4348 82.0748C23.4323 81.9861 23.4312 81.9074 23.4305 81.8673C23.4264 81.655 23.424 81.3815 23.4228 81.1998C23.4197 80.7325 23.4159 79.9205 23.4119 78.665C23.3991 77.572 23.3773 76.5231 23.3496 75.2102C23.3478 75.1275 23.346 75.0448 23.3442 74.9621C23.3171 73.6817 23.2861 72.1833 23.2557 70.3031C23.228 68.5924 23.4025 67.0189 23.6456 66.7896C23.8888 66.561 24.1082 67.7626 24.136 69.4732C24.1646 71.2447 24.1941 72.648 24.2212 73.9293C24.223 74.0105 24.2248 74.0917 24.2266 74.1729C24.2548 75.5087 24.2812 76.774 24.2965 78.1373C24.3017 78.5938 24.3056 79.0643 24.3085 79.5039C24.3195 80.2952 24.3383 81.1957 24.3621 82.2732C24.3668 82.4894 24.3712 82.7126 24.3763 82.9407C24.4089 84.4048 24.4469 86.1098 24.4767 88.0328C24.5466 92.5336 24.5729 98.2362 24.4112 105.762C24.3688 107.736 24.3295 109.649 24.2911 111.517C24.1142 120.122 23.9572 127.779 23.6107 136.017C23.5631 137.147 23.5088 138.231 23.4512 139.391C23.2806 142.826 23.0765 146.929 22.9051 154.874C22.6755 165.52 22.5144 182.877 22.6376 213.534C22.6585 218.753 22.6217 224.382 22.5829 230.38C22.5682 232.669 22.5539 235.016 22.5414 237.411C22.5102 243.433 22.4946 249.917 22.5393 257C22.5566 259.505 23.1985 262.073 24.5342 264.393C28.0186 270.298 33.7803 272.115 38 271.934C41.1835 271.852 44.038 271.77 46.7003 271.694C46.9589 271.686 47.2174 271.679 47.4761 271.671C47.7972 271.662 48.1161 271.653 48.4322 271.644C59.4865 271.329 76.4483 271.267 88.8122 271.741C96.571 272.038 103.007 272.191 111.196 272.37C115.224 272.458 119.527 272.443 126.134 272.421C127.989 272.415 130.028 272.409 132.291 272.404C142.442 272.38 156.619 272.391 178.277 272.651C183.924 272.719 189.004 272.741 193.751 272.762C195.226 272.769 196.673 272.775 198.09 272.783C203.994 272.814 209.489 272.866 214.611 273.047C218.822 273.197 228.145 273.452 238.497 273.593C248.924 273.736 259.994 273.757 267.904 273.472C268.726 273.442 269.556 273.413 270.385 273.384C277.52 273.129 284.796 272.87 290.654 272.439C299.013 271.576 309.532 271.092 321 270.839C328.014 270.849 334.759 264.416 334.605 257C334.651 241.535 334.858 226.243 334.924 213.585C334.926 213.173 334.928 212.762 334.931 212.35C335.119 176.142 335.095 149.828 335.087 140.858C335.086 140.44 335.086 140.059 335.086 139.717C335.085 139.411 335.085 139.135 335.085 138.892C335.082 135.238 335.051 132.005 335.018 128.617C335.016 128.432 335.014 128.248 335.013 128.063C334.978 124.483 334.944 120.727 334.947 116.286C334.958 99.7757 334.918 86.3163 334.875 74.6707C334.867 72.5145 334.86 70.4182 334.852 68.3744C334.852 68.3684 334.852 68.3624 334.852 68.3564C334.818 59.387 334.787 51.4303 334.786 43.8794C334.786 30.1102 334.73 20.8094 334.67 13.5752C334.651 11.3064 334.631 9.21587 334.613 7.2429C334.589 4.6813 334.567 2.31438 334.55 0L341 6.45008C339.46 6.46112 337.943 6.46966 336.408 6.47455C329.181 6.49757 322.529 6.55844 315.977 6.61763C315.393 6.6229 314.81 6.62768 314.227 6.63292C307.124 6.69671 300.091 6.75586 292.654 6.75742C290.928 6.75778 289.498 6.55879 289.461 6.31401C289.427 6.06944 290.799 5.87096 292.524 5.87059C299.747 5.86907 306.608 5.81205 313.708 5.74827C314.294 5.74301 314.882 5.73721 315.472 5.73189C322.007 5.67284 328.781 5.61227 336.142 5.58882C337.773 5.58362 339.368 5.57431 341 5.56217L335.438 0C335.453 2.07439 335.473 4.20761 335.495 6.54832C335.514 8.54385 335.534 10.6926 335.554 13.0836C335.616 20.4277 335.673 29.8511 335.673 43.7531C335.674 51.2129 335.703 59.0678 335.738 68.0316C335.746 70.0883 335.754 72.2043 335.762 74.3865C335.805 86.0614 335.845 99.5902 335.834 116.192C335.831 120.387 335.863 123.948 335.897 127.512C335.899 127.712 335.901 127.912 335.903 128.112C335.935 131.47 335.969 134.883 335.971 138.743C335.972 139.259 335.972 139.917 335.973 140.709C335.981 149.692 336.005 176.113 335.816 212.453C335.816 212.566 335.815 212.679 335.814 212.792C335.704 233.976 335.636 247.127 335.764 257C335.783 258.098 335.688 259.135 335.508 260.115C334.331 266.141 330.191 269.484 326.816 270.911C326.155 271.192 325.51 271.411 324.885 271.58C323.501 271.953 322.217 272.095 321 272.109C319.473 272.121 318.037 272.139 316.601 272.169C307.709 272.355 301.332 272.659 293.617 273.227C287.076 273.709 279.064 273.994 272.044 274.243C272.034 274.243 272.023 274.244 272.013 274.244C271.18 274.274 270.36 274.303 269.559 274.332ZM22.667 45.533C22.6744 43.8081 22.878 42.4234 23.1225 42.4389C23.3671 42.4566 23.56 43.8703 23.5528 45.5961C23.5353 49.7079 23.5178 53.8198 23.5004 57.9315C23.493 59.6562 23.2893 61.0414 23.0449 61.0256C22.8003 61.0079 22.6075 59.594 22.6146 57.8684C22.6321 53.7566 22.6496 49.6448 22.667 45.533ZM276.758 278.741C275.074 278.79 273.397 278.635 273.014 278.396C272.634 278.156 273.691 277.922 275.373 277.872C276.263 277.846 277.726 277.799 279.694 277.735C287.228 277.49 302.191 277.003 321 276.543C330.476 276.656 340.295 267.849 339.894 257C339.76 248.936 339.649 240.596 339.573 232.163C339.541 228.549 339.509 225.312 339.478 222.227C339.347 209.033 338.718 198.441 338.743 173.205C338.802 115.445 339.162 57.7101 339.353 0L341 1.64659C292.691 1.48631 244.4 1.44414 196.127 1.79576C165.529 2.01865 135.028 2.05199 104.407 2.03713C78.8846 2.02474 32.1019 1.57035 21.0942 1.52382C19.3679 1.51652 17.9825 1.31197 18.0002 1.0673C18.0186 0.822753 19.4318 0.630836 21.1573 0.638081C32.0873 0.684279 78.7144 1.13798 104.141 1.1503C134.703 1.16511 165.142 1.13247 195.68 0.910027C244.071 0.557538 292.524 0.376499 341 0.29407L340.706 0C340.804 57.7745 340.762 115.58 340.704 173.345C340.678 198.335 340.231 208.508 340.362 221.654C340.393 224.746 340.425 228.002 340.458 231.649C340.535 240.266 340.65 248.781 340.789 257C341.198 268.396 330.879 277.576 321 277.446C303.026 277.891 288.702 278.356 281.254 278.598C279.224 278.663 277.699 278.713 276.758 278.741ZM196.489 278.37C177.22 278.437 149.828 278.318 125.891 278.213C114.217 278.162 103.364 278.113 94.6755 278.093C81.2139 278.061 72.7392 277.849 64.3352 277.639C64.2451 277.636 64.1548 277.634 64.0646 277.632C56.6087 277.445 49.1472 277.261 38 277.199C36.5773 277.192 35.094 277.038 33.5833 276.697C26.0658 275.266 17.6888 267.479 17.7388 257C17.6901 248.968 17.6258 240.455 17.5612 231.909C17.5612 231.894 17.5612 231.879 17.5612 231.864C17.4166 212.727 16.8215 193.315 16.8557 179.288C16.9748 130.406 17.5835 100.265 18.0614 85.0244C18.8974 58.3659 17.9598 28.1298 19.0171 0.895329C19.2512 -2.10831 19.9253 2.9579 19.7313 8.49506C19.7259 8.69498 19.7204 8.89496 19.7149 9.09491C19.6641 10.9992 19.6228 12.6657 19.5893 15.0123C19.5619 18.4126 19.5601 20.9431 19.5588 23.2525C19.5552 29.3118 19.3942 71.3765 18.9275 86.2602C18.474 100.724 18.9359 130.232 18.8161 179.428C18.7826 193.196 18.3016 212.218 18.447 231.458C18.4473 231.51 18.4477 231.563 18.448 231.616C18.513 240.209 18.5782 248.834 18.6273 257C18.5725 266.946 26.5246 274.44 33.7595 275.828C35.2062 276.156 36.6303 276.305 38 276.313C49.6415 276.376 57.4492 276.569 65.0343 276.759C65.117 276.762 65.1997 276.764 65.2824 276.766C73.6084 276.975 81.6928 277.177 94.6574 277.207C103.537 277.228 114.516 277.276 126.265 277.327C150.1 277.432 177.11 277.551 196.214 277.485C197.938 277.479 199.399 277.673 199.475 277.917C199.55 278.162 198.213 278.364 196.489 278.37ZM196.092 283.891C143.262 284.85 90.1442 284.61 38 283.634C36.2818 283.61 34.5604 283.421 32.8749 283.065C22.7343 281.443 11.3282 271 11.5225 257C11.5499 248.889 11.5805 240.306 11.6112 231.728C11.6123 231.509 11.6133 231.289 11.6144 231.07C11.6831 211.86 11.7514 192.735 11.7848 179.004C11.9039 130.122 12.0638 99.8681 12.5417 84.6275C12.9873 70.4172 12.9886 66.4723 12.9916 60.6242C12.992 60.4648 12.9924 60.3054 12.9927 60.1461C12.992 60.1356 12.9913 60.125 12.9906 60.1145C12.9792 59.914 12.9726 59.7456 12.9698 59.659C12.964 59.4824 12.9619 59.3385 12.9611 59.2846C12.9592 59.1601 12.959 59.0557 12.9589 59.0185C12.9582 58.8666 12.9584 58.693 12.9589 58.581C12.9633 57.5397 12.9901 54.2781 13.0266 51.6939C13.064 49.0457 13.1122 47.158 13.1653 45.1676C13.1708 44.9662 13.1762 44.7647 13.1817 44.5633C13.2298 42.7692 13.2821 40.8171 13.3389 38.0054C13.3736 36.2924 13.598 35.0752 13.8402 35.2858C14.0823 35.4975 14.2505 37.0555 14.2159 38.7676C14.1562 41.7256 14.1005 43.8028 14.0521 45.6051C14.0467 45.8051 14.0412 46.005 14.0357 46.205C13.9849 48.1099 13.9436 49.7791 13.9101 52.1269C13.8828 55.5264 13.8809 58.0536 13.8796 60.3626C13.876 66.417 13.8733 70.9761 13.4067 85.8588C12.9531 100.322 12.7904 129.788 12.6705 178.986C12.637 192.742 12.5688 211.89 12.5002 231.083C12.4994 231.309 12.4987 231.534 12.498 231.76C12.4673 240.333 12.4366 248.904 12.4089 257C12.2197 270.532 23.24 280.617 33.0224 282.191C34.6645 282.518 36.3361 282.681 38 282.683C90.8373 282.783 142.665 282.376 195.813 283.005C205.833 282.971 214.992 282.957 223.478 282.944C248.452 282.907 267.616 282.879 285.886 282.34C289.892 282.222 300.391 282.122 315.563 281.997C317.31 281.983 319.123 281.968 321 281.953C324.605 281.936 328.441 281.113 332.004 279.32C339.557 275.655 345.839 267.049 345.701 257C345.641 249.729 345.575 241.972 345.502 233.778C345.469 230.164 345.437 226.926 345.407 223.842C345.275 210.647 345.171 200.233 345.197 174.996C345.228 143.945 345.448 91.9184 345.617 64.0942C345.702 50.1586 345.78 42.2917 345.846 36.7262C345.864 35.1765 345.881 33.8138 345.897 32.5633C345.938 29.2964 345.969 26.7596 345.99 23.4346C346.043 14.9916 346.064 7.44137 346.06 0L345.996 -5.12383L341 -5.06048C327.339 -5.05328 314.045 -4.96043 296.267 -4.82051C294.546 -4.80703 293.046 -4.9945 292.916 -5.2388C292.787 -5.48314 294.077 -5.69258 295.798 -5.70624C313.67 -5.84691 327.116 -5.94074 341 -5.94729L346.871 -6.02174L346.947 0C346.951 7.48126 346.929 15.0901 346.876 23.5879C346.854 27.0593 346.82 29.7756 346.778 33.1C346.763 34.3325 346.746 35.6489 346.729 37.1186C346.665 42.5916 346.587 50.3761 346.503 64.2385C346.334 92.0129 346.115 143.964 346.084 174.919C346.058 199.909 346.16 210.122 346.29 223.269C346.321 226.36 346.354 229.613 346.386 233.259C346.461 241.645 346.529 249.577 346.59 257C346.726 267.186 340.491 275.959 332.91 279.853C329.07 281.894 324.898 282.826 321 282.843C319.293 282.857 317.641 282.87 316.046 282.883C300.568 283.01 290.702 283.108 287.271 283.209C268.36 283.766 248.363 283.795 223.158 283.832C214.765 283.845 205.792 283.857 196.092 283.891ZM197.295 -5.01819C199.017 -5.03068 200.51 -4.84214 200.632 -4.59771C200.754 -4.35333 199.458 -4.14499 197.737 -4.13245C188.643 -4.06621 182.105 -4.01155 176.994 -3.96863C167.535 -3.88917 162.963 -3.85043 156.117 -3.85723C138.442 -3.87478 121.376 -3.88363 106.022 -3.89108C80.4999 -3.90348 59.6995 -3.91336 48.6922 -3.95989C46.9662 -3.96723 45.5806 -4.17176 45.5982 -4.41641C45.6174 -4.66082 47.0307 -4.85281 48.7553 -4.84563C59.6853 -4.79943 80.3291 -4.78914 105.755 -4.77682C121.127 -4.76937 138.25 -4.76171 156.035 -4.74406C162.676 -4.73746 166.992 -4.77331 176.241 -4.85109C181.347 -4.89402 187.958 -4.95017 197.295 -5.01819Z" fill="#70022B"/>
<path d="M57.67 121.69L54.49 117.88C53.61 118.1 52.71 118.21 51.79 118.21C49.83 118.21 48.03 117.75 46.39 116.83C44.75 115.91 43.45 114.64 42.49 113.02C41.53 111.38 41.05 109.53 41.05 107.47C41.05 105.43 41.53 103.6 42.49 101.98C43.45 100.34 44.75 99.06 46.39 98.14C48.03 97.22 49.83 96.76 51.79 96.76C53.77 96.76 55.57 97.22 57.19 98.14C58.83 99.06 60.12 100.34 61.06 101.98C62.02 103.6 62.5 105.43 62.5 107.47C62.5 109.33 62.1 111.03 61.3 112.57C60.52 114.09 59.45 115.33 58.09 116.29L62.89 121.69H57.67ZM45.37 107.47C45.37 108.87 45.64 110.1 46.18 111.16C46.72 112.22 47.47 113.04 48.43 113.62C49.41 114.18 50.53 114.46 51.79 114.46C53.05 114.46 54.16 114.18 55.12 113.62C56.08 113.04 56.83 112.22 57.37 111.16C57.91 110.1 58.18 108.87 58.18 107.47C58.18 106.07 57.91 104.85 57.37 103.81C56.83 102.75 56.08 101.94 55.12 101.38C54.16 100.82 53.05 100.54 51.79 100.54C50.53 100.54 49.41 100.82 48.43 101.38C47.47 101.94 46.72 102.75 46.18 103.81C45.64 104.85 45.37 106.07 45.37 107.47ZM81.3733 101.38V118H77.1433V115.9C76.6033 116.62 75.8933 117.19 75.0133 117.61C74.1533 118.01 73.2133 118.21 72.1933 118.21C70.8933 118.21 69.7433 117.94 68.7433 117.4C67.7433 116.84 66.9533 116.03 66.3733 114.97C65.8133 113.89 65.5333 112.61 65.5333 111.13V101.38H69.7333V110.53C69.7333 111.85 70.0633 112.87 70.7233 113.59C71.3833 114.29 72.2833 114.64 73.4233 114.64C74.5833 114.64 75.4933 114.29 76.1533 113.59C76.8133 112.87 77.1433 111.85 77.1433 110.53V101.38H81.3733ZM100.967 109.33C100.967 109.93 100.927 110.47 100.847 110.95H88.6973C88.7973 112.15 89.2173 113.09 89.9573 113.77C90.6973 114.45 91.6073 114.79 92.6873 114.79C94.2473 114.79 95.3573 114.12 96.0173 112.78H100.547C100.067 114.38 99.1473 115.7 97.7873 116.74C96.4273 117.76 94.7573 118.27 92.7773 118.27C91.1773 118.27 89.7373 117.92 88.4573 117.22C87.1973 116.5 86.2073 115.49 85.4873 114.19C84.7873 112.89 84.4373 111.39 84.4373 109.69C84.4373 107.97 84.7873 106.46 85.4873 105.16C86.1873 103.86 87.1673 102.86 88.4273 102.16C89.6873 101.46 91.1373 101.11 92.7773 101.11C94.3573 101.11 95.7673 101.45 97.0073 102.13C98.2673 102.81 99.2373 103.78 99.9173 105.04C100.617 106.28 100.967 107.71 100.967 109.33ZM96.6173 108.13C96.5973 107.05 96.2073 106.19 95.4473 105.55C94.6873 104.89 93.7573 104.56 92.6573 104.56C91.6173 104.56 90.7373 104.88 90.0173 105.52C89.3173 106.14 88.8873 107.01 88.7273 108.13H96.6173ZM116.071 104.83V112.87C116.071 113.43 116.201 113.84 116.461 114.1C116.741 114.34 117.201 114.46 117.841 114.46H119.791V118H117.151C113.611 118 111.841 116.28 111.841 112.84V104.83H109.861V101.38H111.841V97.27H116.071V101.38H119.791V104.83H116.071ZM124.942 99.4C124.202 99.4 123.582 99.17 123.082 98.71C122.602 98.23 122.362 97.64 122.362 96.94C122.362 96.24 122.602 95.66 123.082 95.2C123.582 94.72 124.202 94.48 124.942 94.48C125.682 94.48 126.292 94.72 126.772 95.2C127.272 95.66 127.522 96.24 127.522 96.94C127.522 97.64 127.272 98.23 126.772 98.71C126.292 99.17 125.682 99.4 124.942 99.4ZM127.012 101.38V118H122.812V101.38H127.012ZM135.362 103.78C135.902 103.02 136.642 102.39 137.582 101.89C138.542 101.37 139.632 101.11 140.852 101.11C142.272 101.11 143.552 101.46 144.692 102.16C145.852 102.86 146.762 103.86 147.422 105.16C148.102 106.44 148.442 107.93 148.442 109.63C148.442 111.33 148.102 112.84 147.422 114.16C146.762 115.46 145.852 116.47 144.692 117.19C143.552 117.91 142.272 118.27 140.852 118.27C139.632 118.27 138.552 118.02 137.612 117.52C136.692 117.02 135.942 116.39 135.362 115.63V125.92H131.162V101.38H135.362V103.78ZM144.152 109.63C144.152 108.63 143.942 107.77 143.522 107.05C143.122 106.31 142.582 105.75 141.902 105.37C141.242 104.99 140.522 104.8 139.742 104.8C138.982 104.8 138.262 105 137.582 105.4C136.922 105.78 136.382 106.34 135.962 107.08C135.562 107.82 135.362 108.69 135.362 109.69C135.362 110.69 135.562 111.56 135.962 112.3C136.382 113.04 136.922 113.61 137.582 114.01C138.262 114.39 138.982 114.58 139.742 114.58C140.522 114.58 141.242 114.38 141.902 113.98C142.582 113.58 143.122 113.01 143.522 112.27C143.942 111.53 144.152 110.65 144.152 109.63ZM158.874 118.27C157.274 118.27 155.834 117.92 154.554 117.22C153.274 116.5 152.264 115.49 151.524 114.19C150.804 112.89 150.444 111.39 150.444 109.69C150.444 107.99 150.814 106.49 151.554 105.19C152.314 103.89 153.344 102.89 154.644 102.19C155.944 101.47 157.394 101.11 158.994 101.11C160.594 101.11 162.044 101.47 163.344 102.19C164.644 102.89 165.664 103.89 166.404 105.19C167.164 106.49 167.544 107.99 167.544 109.69C167.544 111.39 167.154 112.89 166.374 114.19C165.614 115.49 164.574 116.5 163.254 117.22C161.954 117.92 160.494 118.27 158.874 118.27ZM158.874 114.61C159.634 114.61 160.344 114.43 161.004 114.07C161.684 113.69 162.224 113.13 162.624 112.39C163.024 111.65 163.224 110.75 163.224 109.69C163.224 108.11 162.804 106.9 161.964 106.06C161.144 105.2 160.134 104.77 158.934 104.77C157.734 104.77 156.724 105.2 155.904 106.06C155.104 106.9 154.704 108.11 154.704 109.69C154.704 111.27 155.094 112.49 155.874 113.35C156.674 114.19 157.674 114.61 158.874 114.61ZM176.693 109.63C176.693 107.95 177.023 106.46 177.683 105.16C178.363 103.86 179.283 102.86 180.443 102.16C181.603 101.46 182.893 101.11 184.313 101.11C185.393 101.11 186.423 101.35 187.403 101.83C188.383 102.29 189.163 102.91 189.743 103.69V95.8H194.003V118H189.743V115.54C189.223 116.36 188.493 117.02 187.553 117.52C186.613 118.02 185.523 118.27 184.283 118.27C182.883 118.27 181.603 117.91 180.443 117.19C179.283 116.47 178.363 115.46 177.683 114.16C177.023 112.84 176.693 111.33 176.693 109.63ZM189.773 109.69C189.773 108.67 189.573 107.8 189.173 107.08C188.773 106.34 188.233 105.78 187.553 105.4C186.873 105 186.143 104.8 185.363 104.8C184.583 104.8 183.863 104.99 183.203 105.37C182.543 105.75 182.003 106.31 181.583 107.05C181.183 107.77 180.983 108.63 180.983 109.63C180.983 110.63 181.183 111.51 181.583 112.27C182.003 113.01 182.543 113.58 183.203 113.98C183.883 114.38 184.603 114.58 185.363 114.58C186.143 114.58 186.873 114.39 187.553 114.01C188.233 113.61 188.773 113.05 189.173 112.33C189.573 111.59 189.773 110.71 189.773 109.69ZM213.555 109.33C213.555 109.93 213.515 110.47 213.435 110.95H201.285C201.385 112.15 201.805 113.09 202.545 113.77C203.285 114.45 204.195 114.79 205.275 114.79C206.835 114.79 207.945 114.12 208.605 112.78H213.135C212.655 114.38 211.735 115.7 210.375 116.74C209.015 117.76 207.345 118.27 205.365 118.27C203.765 118.27 202.325 117.92 201.045 117.22C199.785 116.5 198.795 115.49 198.075 114.19C197.375 112.89 197.025 111.39 197.025 109.69C197.025 107.97 197.375 106.46 198.075 105.16C198.775 103.86 199.755 102.86 201.015 102.16C202.275 101.46 203.725 101.11 205.365 101.11C206.945 101.11 208.355 101.45 209.595 102.13C210.855 102.81 211.825 103.78 212.505 105.04C213.205 106.28 213.555 107.71 213.555 109.33ZM209.205 108.13C209.185 107.05 208.795 106.19 208.035 105.55C207.275 104.89 206.345 104.56 205.245 104.56C204.205 104.56 203.325 104.88 202.605 105.52C201.905 106.14 201.475 107.01 201.315 108.13H209.205ZM46.96 149.83V157.87C46.96 158.43 47.09 158.84 47.35 159.1C47.63 159.34 48.09 159.46 48.73 159.46H50.68V163H48.04C44.5 163 42.73 161.28 42.73 157.84V149.83H40.75V146.38H42.73V142.27H46.96V146.38H50.68V149.83H46.96ZM57.9009 148.96C58.4409 148.08 59.1409 147.39 60.0009 146.89C60.8809 146.39 61.8809 146.14 63.0009 146.14V150.55H61.8909C60.5709 150.55 59.5709 150.86 58.8909 151.48C58.2309 152.1 57.9009 153.18 57.9009 154.72V163H53.7009V146.38H57.9009V148.96ZM64.7498 154.63C64.7498 152.95 65.0798 151.46 65.7398 150.16C66.4198 148.86 67.3298 147.86 68.4698 147.16C69.6298 146.46 70.9198 146.11 72.3398 146.11C73.5798 146.11 74.6598 146.36 75.5798 146.86C76.5198 147.36 77.2698 147.99 77.8298 148.75V146.38H82.0598V163H77.8298V160.57C77.2898 161.35 76.5398 162 75.5798 162.52C74.6398 163.02 73.5498 163.27 72.3098 163.27C70.9098 163.27 69.6298 162.91 68.4698 162.19C67.3298 161.47 66.4198 160.46 65.7398 159.16C65.0798 157.84 64.7498 156.33 64.7498 154.63ZM77.8298 154.69C77.8298 153.67 77.6298 152.8 77.2298 152.08C76.8298 151.34 76.2898 150.78 75.6098 150.4C74.9298 150 74.1998 149.8 73.4198 149.8C72.6398 149.8 71.9198 149.99 71.2598 150.37C70.5998 150.75 70.0598 151.31 69.6398 152.05C69.2398 152.77 69.0398 153.63 69.0398 154.63C69.0398 155.63 69.2398 156.51 69.6398 157.27C70.0598 158.01 70.5998 158.58 71.2598 158.98C71.9398 159.38 72.6598 159.58 73.4198 159.58C74.1998 159.58 74.9298 159.39 75.6098 159.01C76.2898 158.61 76.8298 158.05 77.2298 157.33C77.6298 156.59 77.8298 155.71 77.8298 154.69ZM95.3718 146.14C97.3518 146.14 98.9518 146.77 100.172 148.03C101.392 149.27 102.002 151.01 102.002 153.25V163H97.8018V153.82C97.8018 152.5 97.4718 151.49 96.8118 150.79C96.1518 150.07 95.2518 149.71 94.1118 149.71C92.9518 149.71 92.0318 150.07 91.3518 150.79C90.6918 151.49 90.3618 152.5 90.3618 153.82V163H86.1618V146.38H90.3618V148.45C90.9218 147.73 91.6318 147.17 92.4918 146.77C93.3718 146.35 94.3318 146.14 95.3718 146.14ZM112.356 163.27C110.996 163.27 109.776 163.03 108.696 162.55C107.616 162.05 106.756 161.38 106.116 160.54C105.496 159.7 105.156 158.77 105.096 157.75H109.326C109.406 158.39 109.716 158.92 110.256 159.34C110.816 159.76 111.506 159.97 112.326 159.97C113.126 159.97 113.746 159.81 114.186 159.49C114.646 159.17 114.876 158.76 114.876 158.26C114.876 157.72 114.596 157.32 114.036 157.06C113.496 156.78 112.626 156.48 111.426 156.16C110.186 155.86 109.166 155.55 108.366 155.23C107.586 154.91 106.906 154.42 106.326 153.76C105.766 153.1 105.486 152.21 105.486 151.09C105.486 150.17 105.746 149.33 106.266 148.57C106.806 147.81 107.566 147.21 108.546 146.77C109.546 146.33 110.716 146.11 112.056 146.11C114.036 146.11 115.616 146.61 116.796 147.61C117.976 148.59 118.626 149.92 118.746 151.6H114.726C114.666 150.94 114.386 150.42 113.886 150.04C113.406 149.64 112.756 149.44 111.936 149.44C111.176 149.44 110.586 149.58 110.166 149.86C109.766 150.14 109.566 150.53 109.566 151.03C109.566 151.59 109.846 152.02 110.406 152.32C110.966 152.6 111.836 152.89 113.016 153.19C114.216 153.49 115.206 153.8 115.986 154.12C116.766 154.44 117.436 154.94 117.996 155.62C118.576 156.28 118.876 157.16 118.896 158.26C118.896 159.22 118.626 160.08 118.086 160.84C117.566 161.6 116.806 162.2 115.806 162.64C114.826 163.06 113.676 163.27 112.356 163.27ZM126.543 148.78C127.083 148.02 127.823 147.39 128.763 146.89C129.723 146.37 130.813 146.11 132.033 146.11C133.453 146.11 134.733 146.46 135.873 147.16C137.033 147.86 137.943 148.86 138.603 150.16C139.283 151.44 139.623 152.93 139.623 154.63C139.623 156.33 139.283 157.84 138.603 159.16C137.943 160.46 137.033 161.47 135.873 162.19C134.733 162.91 133.453 163.27 132.033 163.27C130.813 163.27 129.733 163.02 128.793 162.52C127.873 162.02 127.123 161.39 126.543 160.63V170.92H122.343V146.38H126.543V148.78ZM135.333 154.63C135.333 153.63 135.123 152.77 134.703 152.05C134.303 151.31 133.763 150.75 133.083 150.37C132.423 149.99 131.703 149.8 130.923 149.8C130.163 149.8 129.443 150 128.763 150.4C128.103 150.78 127.563 151.34 127.143 152.08C126.743 152.82 126.543 153.69 126.543 154.69C126.543 155.69 126.743 156.56 127.143 157.3C127.563 158.04 128.103 158.61 128.763 159.01C129.443 159.39 130.163 159.58 130.923 159.58C131.703 159.58 132.423 159.38 133.083 158.98C133.763 158.58 134.303 158.01 134.703 157.27C135.123 156.53 135.333 155.65 135.333 154.63ZM150.055 163.27C148.455 163.27 147.015 162.92 145.735 162.22C144.455 161.5 143.445 160.49 142.705 159.19C141.985 157.89 141.625 156.39 141.625 154.69C141.625 152.99 141.995 151.49 142.735 150.19C143.495 148.89 144.525 147.89 145.825 147.19C147.125 146.47 148.575 146.11 150.175 146.11C151.775 146.11 153.225 146.47 154.525 147.19C155.825 147.89 156.845 148.89 157.585 150.19C158.345 151.49 158.725 152.99 158.725 154.69C158.725 156.39 158.335 157.89 157.555 159.19C156.795 160.49 155.755 161.5 154.435 162.22C153.135 162.92 151.675 163.27 150.055 163.27ZM150.055 159.61C150.815 159.61 151.525 159.43 152.185 159.07C152.865 158.69 153.405 158.13 153.805 157.39C154.205 156.65 154.405 155.75 154.405 154.69C154.405 153.11 153.985 151.9 153.145 151.06C152.325 150.2 151.315 149.77 150.115 149.77C148.915 149.77 147.905 150.2 147.085 151.06C146.285 151.9 145.885 153.11 145.885 154.69C145.885 156.27 146.275 157.49 147.055 158.35C147.855 159.19 148.855 159.61 150.055 159.61ZM166.006 148.96C166.546 148.08 167.246 147.39 168.106 146.89C168.986 146.39 169.986 146.14 171.106 146.14V150.55H169.996C168.676 150.55 167.676 150.86 166.996 151.48C166.336 152.1 166.006 153.18 166.006 154.72V163H161.806V146.38H166.006V148.96ZM178.825 149.83V157.87C178.825 158.43 178.955 158.84 179.215 159.1C179.495 159.34 179.955 159.46 180.595 159.46H182.545V163H179.905C176.365 163 174.595 161.28 174.595 157.84V149.83H172.615V146.38H174.595V142.27H178.825V146.38H182.545V149.83H178.825ZM201.016 154.33C201.016 154.93 200.976 155.47 200.896 155.95H188.746C188.846 157.15 189.266 158.09 190.006 158.77C190.746 159.45 191.656 159.79 192.736 159.79C194.296 159.79 195.406 159.12 196.066 157.78H200.596C200.116 159.38 199.196 160.7 197.836 161.74C196.476 162.76 194.806 163.27 192.826 163.27C191.226 163.27 189.786 162.92 188.506 162.22C187.246 161.5 186.256 160.49 185.536 159.19C184.836 157.89 184.486 156.39 184.486 154.69C184.486 152.97 184.836 151.46 185.536 150.16C186.236 148.86 187.216 147.86 188.476 147.16C189.736 146.46 191.186 146.11 192.826 146.11C194.406 146.11 195.816 146.45 197.056 147.13C198.316 147.81 199.286 148.78 199.966 150.04C200.666 151.28 201.016 152.71 201.016 154.33ZM196.666 153.13C196.646 152.05 196.256 151.19 195.496 150.55C194.736 149.89 193.806 149.56 192.706 149.56C191.666 149.56 190.786 149.88 190.066 150.52C189.366 151.14 188.936 152.01 188.776 153.13H196.666ZM40.99 199.63C40.99 197.95 41.32 196.46 41.98 195.16C42.66 193.86 43.58 192.86 44.74 192.16C45.9 191.46 47.19 191.11 48.61 191.11C49.69 191.11 50.72 191.35 51.7 191.83C52.68 192.29 53.46 192.91 54.04 193.69V185.8H58.3V208H54.04V205.54C53.52 206.36 52.79 207.02 51.85 207.52C50.91 208.02 49.82 208.27 48.58 208.27C47.18 208.27 45.9 207.91 44.74 207.19C43.58 206.47 42.66 205.46 41.98 204.16C41.32 202.84 40.99 201.33 40.99 199.63ZM54.07 199.69C54.07 198.67 53.87 197.8 53.47 197.08C53.07 196.34 52.53 195.78 51.85 195.4C51.17 195 50.44 194.8 49.66 194.8C48.88 194.8 48.16 194.99 47.5 195.37C46.84 195.75 46.3 196.31 45.88 197.05C45.48 197.77 45.28 198.63 45.28 199.63C45.28 200.63 45.48 201.51 45.88 202.27C46.3 203.01 46.84 203.58 47.5 203.98C48.18 204.38 48.9 204.58 49.66 204.58C50.44 204.58 51.17 204.39 51.85 204.01C52.53 203.61 53.07 203.05 53.47 202.33C53.87 201.59 54.07 200.71 54.07 199.69ZM77.852 199.33C77.852 199.93 77.812 200.47 77.732 200.95H65.582C65.682 202.15 66.102 203.09 66.842 203.77C67.582 204.45 68.492 204.79 69.572 204.79C71.132 204.79 72.242 204.12 72.902 202.78H77.432C76.952 204.38 76.032 205.7 74.672 206.74C73.312 207.76 71.642 208.27 69.662 208.27C68.062 208.27 66.622 207.92 65.342 207.22C64.082 206.5 63.092 205.49 62.372 204.19C61.672 202.89 61.322 201.39 61.322 199.69C61.322 197.97 61.672 196.46 62.372 195.16C63.072 193.86 64.052 192.86 65.312 192.16C66.572 191.46 68.022 191.11 69.662 191.11C71.242 191.11 72.652 191.45 73.892 192.13C75.152 192.81 76.122 193.78 76.802 195.04C77.502 196.28 77.852 197.71 77.852 199.33ZM73.502 198.13C73.482 197.05 73.092 196.19 72.332 195.55C71.572 194.89 70.642 194.56 69.542 194.56C68.502 194.56 67.622 194.88 66.902 195.52C66.202 196.14 65.772 197.01 65.612 198.13H73.502ZM87.2777 208.27C85.9177 208.27 84.6977 208.03 83.6177 207.55C82.5377 207.05 81.6777 206.38 81.0377 205.54C80.4177 204.7 80.0777 203.77 80.0177 202.75H84.2477C84.3277 203.39 84.6377 203.92 85.1777 204.34C85.7377 204.76 86.4277 204.97 87.2477 204.97C88.0477 204.97 88.6677 204.81 89.1077 204.49C89.5677 204.17 89.7977 203.76 89.7977 203.26C89.7977 202.72 89.5177 202.32 88.9577 202.06C88.4177 201.78 87.5477 201.48 86.3477 201.16C85.1077 200.86 84.0877 200.55 83.2877 200.23C82.5077 199.91 81.8277 199.42 81.2477 198.76C80.6877 198.1 80.4077 197.21 80.4077 196.09C80.4077 195.17 80.6677 194.33 81.1877 193.57C81.7277 192.81 82.4877 192.21 83.4677 191.77C84.4677 191.33 85.6377 191.11 86.9777 191.11C88.9577 191.11 90.5377 191.61 91.7177 192.61C92.8977 193.59 93.5477 194.92 93.6677 196.6H89.6477C89.5877 195.94 89.3077 195.42 88.8077 195.04C88.3277 194.64 87.6777 194.44 86.8577 194.44C86.0977 194.44 85.5077 194.58 85.0877 194.86C84.6877 195.14 84.4877 195.53 84.4877 196.03C84.4877 196.59 84.7677 197.02 85.3277 197.32C85.8877 197.6 86.7577 197.89 87.9377 198.19C89.1377 198.49 90.1277 198.8 90.9077 199.12C91.6877 199.44 92.3577 199.94 92.9177 200.62C93.4977 201.28 93.7977 202.16 93.8177 203.26C93.8177 204.22 93.5477 205.08 93.0077 205.84C92.4877 206.6 91.7277 207.2 90.7277 207.64C89.7477 208.06 88.5977 208.27 87.2777 208.27ZM112.715 199.33C112.715 199.93 112.675 200.47 112.595 200.95H100.445C100.545 202.15 100.965 203.09 101.705 203.77C102.445 204.45 103.355 204.79 104.435 204.79C105.995 204.79 107.105 204.12 107.765 202.78H112.295C111.815 204.38 110.895 205.7 109.535 206.74C108.175 207.76 106.505 208.27 104.525 208.27C102.925 208.27 101.485 207.92 100.205 207.22C98.9453 206.5 97.9553 205.49 97.2353 204.19C96.5353 202.89 96.1853 201.39 96.1853 199.69C96.1853 197.97 96.5353 196.46 97.2353 195.16C97.9353 193.86 98.9153 192.86 100.175 192.16C101.435 191.46 102.885 191.11 104.525 191.11C106.105 191.11 107.515 191.45 108.755 192.13C110.015 192.81 110.985 193.78 111.665 195.04C112.365 196.28 112.715 197.71 112.715 199.33ZM108.365 198.13C108.345 197.05 107.955 196.19 107.195 195.55C106.435 194.89 105.505 194.56 104.405 194.56C103.365 194.56 102.485 194.88 101.765 195.52C101.065 196.14 100.635 197.01 100.475 198.13H108.365ZM117.911 189.4C117.151 189.4 116.521 189.17 116.021 188.71C115.541 188.23 115.301 187.64 115.301 186.94C115.301 186.24 115.541 185.66 116.021 185.2C116.521 184.72 117.151 184.48 117.911 184.48C118.651 184.48 119.261 184.72 119.741 185.2C120.221 185.66 120.461 186.24 120.461 186.94C120.461 187.64 120.221 188.23 119.741 188.71C119.261 189.17 118.651 189.4 117.911 189.4ZM119.981 210.73C119.981 212.57 119.521 213.89 118.601 214.69C117.701 215.51 116.401 215.92 114.701 215.92H112.841V212.35H114.041C114.681 212.35 115.131 212.22 115.391 211.96C115.651 211.72 115.781 211.32 115.781 210.76V191.38H119.981V210.73ZM123.051 199.63C123.051 197.95 123.381 196.46 124.041 195.16C124.721 193.86 125.631 192.86 126.771 192.16C127.931 191.46 129.221 191.11 130.641 191.11C131.881 191.11 132.961 191.36 133.881 191.86C134.821 192.36 135.571 192.99 136.131 193.75V191.38H140.361V208H136.131V205.57C135.591 206.35 134.841 207 133.881 207.52C132.941 208.02 131.851 208.27 130.611 208.27C129.211 208.27 127.931 207.91 126.771 207.19C125.631 206.47 124.721 205.46 124.041 204.16C123.381 202.84 123.051 201.33 123.051 199.63ZM136.131 199.69C136.131 198.67 135.931 197.8 135.531 197.08C135.131 196.34 134.591 195.78 133.911 195.4C133.231 195 132.501 194.8 131.721 194.8C130.941 194.8 130.221 194.99 129.561 195.37C128.901 195.75 128.361 196.31 127.941 197.05C127.541 197.77 127.341 198.63 127.341 199.63C127.341 200.63 127.541 201.51 127.941 202.27C128.361 203.01 128.901 203.58 129.561 203.98C130.241 204.38 130.961 204.58 131.721 204.58C132.501 204.58 133.231 204.39 133.911 204.01C134.591 203.61 135.131 203.05 135.531 202.33C135.931 201.59 136.131 200.71 136.131 199.69ZM49 249.13L53.2 236.38H57.67L51.52 253H46.42L40.3 236.38H44.8L49 249.13ZM62.159 234.4C61.419 234.4 60.799 234.17 60.299 233.71C59.819 233.23 59.579 232.64 59.579 231.94C59.579 231.24 59.819 230.66 60.299 230.2C60.799 229.72 61.419 229.48 62.159 229.48C62.899 229.48 63.509 229.72 63.989 230.2C64.489 230.66 64.739 231.24 64.739 231.94C64.739 232.64 64.489 233.23 63.989 233.71C63.509 234.17 62.899 234.4 62.159 234.4ZM64.229 236.38V253H60.029V236.38H64.229ZM67.2986 244.63C67.2986 242.95 67.6286 241.46 68.2886 240.16C68.9686 238.86 69.8786 237.86 71.0186 237.16C72.1786 236.46 73.4686 236.11 74.8886 236.11C76.1286 236.11 77.2086 236.36 78.1286 236.86C79.0686 237.36 79.8186 237.99 80.3786 238.75V236.38H84.6086V253H80.3786V250.57C79.8386 251.35 79.0886 252 78.1286 252.52C77.1886 253.02 76.0986 253.27 74.8586 253.27C73.4586 253.27 72.1786 252.91 71.0186 252.19C69.8786 251.47 68.9686 250.46 68.2886 249.16C67.6286 247.84 67.2986 246.33 67.2986 244.63ZM80.3786 244.69C80.3786 243.67 80.1786 242.8 79.7786 242.08C79.3786 241.34 78.8386 240.78 78.1586 240.4C77.4786 240 76.7486 239.8 75.9686 239.8C75.1886 239.8 74.4686 239.99 73.8086 240.37C73.1486 240.75 72.6086 241.31 72.1886 242.05C71.7886 242.77 71.5886 243.63 71.5886 244.63C71.5886 245.63 71.7886 246.51 72.1886 247.27C72.6086 248.01 73.1486 248.58 73.8086 248.98C74.4886 249.38 75.2086 249.58 75.9686 249.58C76.7486 249.58 77.4786 249.39 78.1586 249.01C78.8386 248.61 79.3786 248.05 79.7786 247.33C80.1786 246.59 80.3786 245.71 80.3786 244.69ZM90.8406 234.4C90.0806 234.4 89.4506 234.17 88.9506 233.71C88.4706 233.23 88.2306 232.64 88.2306 231.94C88.2306 231.24 88.4706 230.66 88.9506 230.2C89.4506 229.72 90.0806 229.48 90.8406 229.48C91.5806 229.48 92.1906 229.72 92.6706 230.2C93.1506 230.66 93.3906 231.24 93.3906 231.94C93.3906 232.64 93.1506 233.23 92.6706 233.71C92.1906 234.17 91.5806 234.4 90.8406 234.4ZM92.9106 255.73C92.9106 257.57 92.4506 258.89 91.5306 259.69C90.6306 260.51 89.3306 260.92 87.6306 260.92H85.7706V257.35H86.9706C87.6106 257.35 88.0606 257.22 88.3206 256.96C88.5806 256.72 88.7106 256.32 88.7106 255.76V236.38H92.9106V255.73ZM95.9802 244.63C95.9802 242.95 96.3102 241.46 96.9702 240.16C97.6502 238.86 98.5602 237.86 99.7002 237.16C100.86 236.46 102.15 236.11 103.57 236.11C104.81 236.11 105.89 236.36 106.81 236.86C107.75 237.36 108.5 237.99 109.06 238.75V236.38H113.29V253H109.06V250.57C108.52 251.35 107.77 252 106.81 252.52C105.87 253.02 104.78 253.27 103.54 253.27C102.14 253.27 100.86 252.91 99.7002 252.19C98.5602 251.47 97.6502 250.46 96.9702 249.16C96.3102 247.84 95.9802 246.33 95.9802 244.63ZM109.06 244.69C109.06 243.67 108.86 242.8 108.46 242.08C108.06 241.34 107.52 240.78 106.84 240.4C106.16 240 105.43 239.8 104.65 239.8C103.87 239.8 103.15 239.99 102.49 240.37C101.83 240.75 101.29 241.31 100.87 242.05C100.47 242.77 100.27 243.63 100.27 244.63C100.27 245.63 100.47 246.51 100.87 247.27C101.29 248.01 101.83 248.58 102.49 248.98C103.17 249.38 103.89 249.58 104.65 249.58C105.43 249.58 106.16 249.39 106.84 249.01C107.52 248.61 108.06 248.05 108.46 247.33C108.86 246.59 109.06 245.71 109.06 244.69ZM121.592 238.96C122.132 238.08 122.832 237.39 123.692 236.89C124.572 236.39 125.572 236.14 126.692 236.14V240.55H125.582C124.262 240.55 123.262 240.86 122.582 241.48C121.922 242.1 121.592 243.18 121.592 244.72V253H117.392V236.38H121.592V238.96ZM135.371 231.34C137.451 231.34 139.121 231.91 140.381 233.05C141.661 234.17 142.301 235.72 142.301 237.7C142.301 239.66 141.671 241.16 140.411 242.2C139.151 243.22 137.481 243.73 135.401 243.73L135.281 246.04H131.591L131.441 240.94H132.791C134.531 240.94 135.871 240.71 136.811 240.25C137.751 239.79 138.221 238.95 138.221 237.73C138.221 236.85 137.961 236.15 137.441 235.63C136.941 235.11 136.251 234.85 135.371 234.85C134.451 234.85 133.731 235.1 133.211 235.6C132.711 236.1 132.461 236.79 132.461 237.67H128.501C128.481 236.45 128.741 235.36 129.281 234.4C129.821 233.44 130.611 232.69 131.651 232.15C132.711 231.61 133.951 231.34 135.371 231.34ZM133.421 253.21C132.661 253.21 132.031 252.98 131.531 252.52C131.051 252.04 130.811 251.45 130.811 250.75C130.811 250.05 131.051 249.47 131.531 249.01C132.031 248.53 132.661 248.29 133.421 248.29C134.161 248.29 134.771 248.53 135.251 249.01C135.731 249.47 135.971 250.05 135.971 250.75C135.971 251.45 135.731 252.04 135.251 252.52C134.771 252.98 134.161 253.21 133.421 253.21Z" fill="#2C2626"/>
<rect x="55" y="357" width="120" height="120" rx="15" fill="#4F8309"/>
<rect x="56.5" y="488.5" width="117" height="117" rx="13.5" fill="#E8E8E8" stroke="#4F8309" stroke-width="3"/>
<rect x="186.5" y="488.5" width="117" height="117" rx="13.5" fill="#E8E8E8" stroke="#4F8309" stroke-width="3"/>
<rect x="186.5" y="358.5" width="117" height="117" rx="13.5" fill="#E8E8E8" stroke="#4F8309" stroke-width="3"/>
<path d="M142.083 584.501C150.137 584.501 156.667 577.971 156.667 569.917C156.667 561.863 150.137 555.334 142.083 555.334C134.029 555.334 127.5 561.863 127.5 569.917C127.5 577.971 134.029 584.501 142.083 584.501Z" stroke="#4F8309" stroke-width="5" stroke-linecap="round" stroke-linejoin="round"/>
<path d="M87.9166 584.501C95.9707 584.501 102.5 577.971 102.5 569.917C102.5 561.863 95.9707 555.334 87.9166 555.334C79.8624 555.334 73.3333 561.863 73.3333 569.917C73.3333 577.971 79.8624 584.501 87.9166 584.501Z" stroke="#4F8309" stroke-width="5" stroke-linecap="round" stroke-linejoin="round"/>
<path d="M127.5 522C129.801 522 131.667 520.135 131.667 517.834C131.667 515.532 129.801 513.667 127.5 513.667C125.199 513.667 123.333 515.532 123.333 517.834C123.333 520.135 125.199 522 127.5 522Z" stroke="#4F8309" stroke-width="5" stroke-linecap="round" stroke-linejoin="round"/>
<path d="M115 569.917V555.334L102.5 542.834L119.167 530.334L127.5 542.834H135.833" stroke="#4F8309" stroke-width="5" stroke-linecap="round" stroke-linejoin="round"/>
<path d="M260.683 513.667C263.004 513.667 265.28 514.313 267.254 515.534C269.229 516.754 270.824 518.499 271.863 520.575L277.625 532.096C278.642 531.679 279.654 531.259 280.638 530.771C281.627 530.277 282.771 530.196 283.82 530.546C284.869 530.896 285.735 531.649 286.229 532.638C286.723 533.627 286.804 534.772 286.454 535.82C286.104 536.869 285.352 537.736 284.363 538.229C282.304 539.254 281.363 539.571 281.363 539.571L285.346 547.542C286.217 549.279 286.667 551.192 286.667 553.134V563.667C286.667 565.426 286.296 567.165 285.578 568.77C284.86 570.375 283.811 571.811 282.5 572.984V578.25C282.5 579.908 281.842 581.498 280.669 582.67C279.497 583.842 277.908 584.5 276.25 584.5C274.592 584.5 273.003 583.842 271.831 582.67C270.659 581.498 270 579.908 270 578.25V576.167H220V578.25C220 579.908 219.342 581.498 218.169 582.67C216.997 583.842 215.408 584.5 213.75 584.5C212.092 584.5 210.503 583.842 209.331 582.67C208.159 581.498 207.5 579.908 207.5 578.25V572.984C204.942 570.692 203.333 567.367 203.333 563.667V553.134C203.334 551.194 203.786 549.281 204.654 547.546L208.638 539.571C207.628 539.153 206.63 538.707 205.646 538.234C205.155 537.99 204.717 537.652 204.356 537.238C203.996 536.825 203.721 536.345 203.547 535.825C203.373 535.305 203.303 534.756 203.341 534.209C203.38 533.662 203.526 533.128 203.771 532.638C204.275 531.653 205.146 530.907 206.197 530.56C207.247 530.213 208.392 530.293 209.383 530.784C210.367 531.256 211.364 531.693 212.375 532.096L218.138 520.575C219.176 518.499 220.772 516.754 222.746 515.534C224.721 514.313 226.996 513.667 229.317 513.667H260.683ZM273.475 542.434C266.392 544.671 256.313 547 245 547C233.688 547 223.608 544.667 216.525 542.434L212.108 551.267C211.818 551.846 211.667 552.486 211.667 553.134V563.667C211.667 564.772 212.106 565.832 212.887 566.613C213.669 567.395 214.728 567.834 215.833 567.834H274.167C275.272 567.834 276.332 567.395 277.113 566.613C277.894 565.832 278.333 564.772 278.333 563.667V553.134C278.333 552.487 278.181 551.849 277.892 551.271L273.475 542.434ZM226.25 551.167C227.908 551.167 229.497 551.825 230.669 552.998C231.842 554.17 232.5 555.759 232.5 557.417C232.5 559.075 231.842 560.664 230.669 561.836C229.497 563.009 227.908 563.667 226.25 563.667C224.592 563.667 223.003 563.009 221.831 561.836C220.659 560.664 220 559.075 220 557.417C220 555.759 220.659 554.17 221.831 552.998C223.003 551.825 224.592 551.167 226.25 551.167ZM263.75 551.167C265.408 551.167 266.997 551.825 268.169 552.998C269.342 554.17 270 555.759 270 557.417C270 559.075 269.342 560.664 268.169 561.836C266.997 563.009 265.408 563.667 263.75 563.667C262.092 563.667 260.503 563.009 259.331 561.836C258.159 560.664 257.5 559.075 257.5 557.417C257.5 555.759 258.159 554.17 259.331 552.998C260.503 551.825 262.092 551.167 263.75 551.167ZM260.683 522H229.317C228.543 522.001 227.785 522.217 227.127 522.623C226.469 523.03 225.938 523.612 225.592 524.304L220.3 534.875C226.75 536.813 235.442 538.667 245 538.667C254.558 538.667 263.25 536.813 269.696 534.875L264.408 524.304C264.063 523.612 263.531 523.03 262.873 522.623C262.215 522.217 261.457 522.001 260.683 522Z" fill="#4F8309"/>
<path d="M211.667 431.583V392C211.667 388.319 212.622 385.384 214.533 383.196C216.445 381.007 218.961 379.34 222.083 378.196C225.206 377.051 228.765 376.287 232.763 375.904C236.76 375.521 240.839 375.33 245 375.333C249.583 375.333 253.907 375.525 257.971 375.908C262.035 376.291 265.576 377.055 268.596 378.2C271.615 379.344 273.993 381.011 275.729 383.2C277.465 385.389 278.333 388.322 278.333 392V431.583C278.333 435.68 276.928 439.136 274.117 441.95C271.306 444.764 267.85 446.169 263.75 446.166L265.833 448.25C267.014 449.43 267.292 450.768 266.667 452.262C266.042 453.757 264.896 454.502 263.229 454.5C262.743 454.5 262.275 454.414 261.825 454.241C261.375 454.069 260.975 453.808 260.625 453.458L253.333 446.166H236.667L229.375 453.458C229.028 453.805 228.628 454.066 228.175 454.241C227.722 454.416 227.256 454.502 226.775 454.5C225.178 454.5 224.05 453.754 223.392 452.262C222.733 450.771 222.992 449.433 224.167 448.25L226.25 446.166C222.153 446.166 218.697 444.761 215.883 441.95C213.07 439.139 211.664 435.683 211.667 431.583ZM220 408.666H240.833V396.166H220V408.666ZM249.167 408.666H270V396.166H249.167V408.666ZM230.417 433.666C232.222 433.666 233.715 433.076 234.896 431.896C236.076 430.715 236.667 429.222 236.667 427.416C236.667 425.611 236.076 424.118 234.896 422.937C233.715 421.757 232.222 421.166 230.417 421.166C228.611 421.166 227.118 421.757 225.938 422.937C224.757 424.118 224.167 425.611 224.167 427.416C224.167 429.222 224.757 430.715 225.938 431.896C227.118 433.076 228.611 433.666 230.417 433.666ZM259.583 433.666C261.389 433.666 262.882 433.076 264.063 431.896C265.243 430.715 265.833 429.222 265.833 427.416C265.833 425.611 265.243 424.118 264.063 422.937C262.882 421.757 261.389 421.166 259.583 421.166C257.778 421.166 256.285 421.757 255.104 422.937C253.924 424.118 253.333 425.611 253.333 427.416C253.333 429.222 253.924 430.715 255.104 431.896C256.285 433.076 257.778 433.666 259.583 433.666Z" fill="#4F8309"/>
<path fill-rule="evenodd" clip-rule="evenodd" d="M115 375.333C99.2874 375.333 91.4291 375.333 86.5499 380.216C82.1166 384.646 81.7083 391.525 81.6666 404.5H77.4999C76.3948 404.5 75.335 404.939 74.5536 405.72C73.7722 406.501 73.3333 407.561 73.3333 408.666V412.833C73.3333 413.48 73.4839 414.118 73.7731 414.696C74.0624 415.275 74.4824 415.778 74.9999 416.166L81.6666 421.166C81.7083 434.141 82.1166 441.021 86.5499 445.45C87.5583 446.462 88.6916 447.262 89.9999 447.896V454.5C89.9999 455.605 90.4389 456.665 91.2203 457.446C92.0017 458.227 93.0615 458.666 94.1666 458.666H100.417C101.522 458.666 102.581 458.227 103.363 457.446C104.144 456.665 104.583 455.605 104.583 454.5V450.258C107.612 450.333 111.058 450.333 115 450.333C118.942 450.333 122.387 450.333 125.417 450.258V454.5C125.417 455.605 125.856 456.665 126.637 457.446C127.418 458.227 128.478 458.666 129.583 458.666H135.833C136.938 458.666 137.998 458.227 138.78 457.446C139.561 456.665 140 455.605 140 454.5V447.896C141.28 447.282 142.447 446.455 143.45 445.45C147.883 441.021 148.296 434.141 148.333 421.166L155 416.166C155.517 415.778 155.937 415.275 156.227 414.696C156.516 414.118 156.667 413.48 156.667 412.833V408.666C156.667 407.561 156.228 406.501 155.446 405.72C154.665 404.939 153.605 404.5 152.5 404.5H148.333C148.292 391.525 147.883 384.646 143.45 380.216C138.571 375.333 130.712 375.333 115 375.333ZM87.9166 406.583C87.9166 412.475 87.9166 415.421 89.7499 417.25C91.5791 419.083 94.5249 419.083 100.417 419.083H129.583C135.475 419.083 138.421 419.083 140.25 417.25C142.083 415.421 142.083 412.475 142.083 406.583V396.166C142.083 390.275 142.083 387.329 140.25 385.5C138.425 383.666 135.479 383.666 129.583 383.666H100.417C94.5249 383.666 91.5791 383.666 89.7499 385.5C87.9166 387.325 87.9166 390.271 87.9166 396.166V406.583ZM91.0416 433.666C91.0416 432.838 91.3708 432.043 91.9569 431.457C92.5429 430.871 93.3378 430.541 94.1666 430.541H100.417C101.245 430.541 102.04 430.871 102.626 431.457C103.212 432.043 103.542 432.838 103.542 433.666C103.542 434.495 103.212 435.29 102.626 435.876C102.04 436.462 101.245 436.791 100.417 436.791H94.1666C93.3378 436.791 92.5429 436.462 91.9569 435.876C91.3708 435.29 91.0416 434.495 91.0416 433.666ZM138.958 433.666C138.958 432.838 138.629 432.043 138.043 431.457C137.457 430.871 136.662 430.541 135.833 430.541H129.583C128.754 430.541 127.96 430.871 127.374 431.457C126.787 432.043 126.458 432.838 126.458 433.666C126.458 434.495 126.787 435.29 127.374 435.876C127.96 436.462 128.754 436.791 129.583 436.791H135.833C136.662 436.791 137.457 436.462 138.043 435.876C138.629 435.29 138.958 434.495 138.958 433.666Z" fill="white"/>
<path d="M53.5167 33.1837C53.3625 33.0292 53.1794 32.9066 52.9777 32.823C52.7761 32.7393 52.56 32.6963 52.3417 32.6963C52.1234 32.6963 51.9073 32.7393 51.7057 32.823C51.504 32.9066 51.3209 33.0292 51.1667 33.1837L43.5167 40.8337C43.3622 40.9879 43.2396 41.171 43.156 41.3727C43.0723 41.5743 43.0293 41.7904 43.0293 42.0087C43.0293 42.227 43.0723 42.4431 43.156 42.6447C43.2396 42.8464 43.3622 43.0295 43.5167 43.1837L51.1667 50.8337C51.321 50.988 51.5042 51.1104 51.7058 51.1939C51.9074 51.2774 52.1235 51.3204 52.3417 51.3204C52.5599 51.3204 52.776 51.2774 52.9776 51.1939C53.1792 51.1104 53.3624 50.988 53.5167 50.8337C53.671 50.6794 53.7934 50.4962 53.8769 50.2946C53.9604 50.093 54.0034 49.8769 54.0034 49.6587C54.0034 49.4405 53.9604 49.2244 53.8769 49.0228C53.7934 48.8212 53.671 48.638 53.5167 48.4837L47.05 42.0004L53.5167 35.5337C54.1667 34.8837 54.15 33.817 53.5167 33.1837Z" fill="#2C2626"/>
<g filter="url(#filter0_d_161_9)">
<rect x="175" y="715" width="150" height="45" rx="10" fill="#4F8309"/>
<path d="M214.22 735.24C214.22 735.947 214.053 736.613 213.72 737.24C213.387 737.867 212.853 738.38 212.12 738.78C211.387 739.167 210.447 739.36 209.3 739.36H206.78V745H204.5V731.1H209.3C210.367 731.1 211.267 731.287 212 731.66C212.747 732.02 213.3 732.513 213.66 733.14C214.033 733.767 214.22 734.467 214.22 735.24ZM209.3 737.5C210.167 737.5 210.813 737.307 211.24 736.92C211.667 736.52 211.88 735.96 211.88 735.24C211.88 733.72 211.02 732.96 209.3 732.96H206.78V737.5H209.3ZM223.615 745L220.415 739.44H218.675V745H216.395V731.1H221.195C222.261 731.1 223.161 731.287 223.895 731.66C224.641 732.033 225.195 732.533 225.555 733.16C225.928 733.787 226.115 734.487 226.115 735.26C226.115 736.167 225.848 736.993 225.315 737.74C224.795 738.473 223.988 738.973 222.895 739.24L226.335 745H223.615ZM218.675 737.62H221.195C222.048 737.62 222.688 737.407 223.115 736.98C223.555 736.553 223.775 735.98 223.775 735.26C223.775 734.54 223.561 733.98 223.135 733.58C222.708 733.167 222.061 732.96 221.195 732.96H218.675V737.62ZM235.371 745.14C234.078 745.14 232.885 744.84 231.791 744.24C230.711 743.627 229.851 742.78 229.211 741.7C228.585 740.607 228.271 739.38 228.271 738.02C228.271 736.66 228.585 735.44 229.211 734.36C229.851 733.28 230.711 732.44 231.791 731.84C232.885 731.227 234.078 730.92 235.371 730.92C236.678 730.92 237.871 731.227 238.951 731.84C240.045 732.44 240.905 733.28 241.531 734.36C242.158 735.44 242.471 736.66 242.471 738.02C242.471 739.38 242.158 740.607 241.531 741.7C240.905 742.78 240.045 743.627 238.951 744.24C237.871 744.84 236.678 745.14 235.371 745.14ZM235.371 743.16C236.291 743.16 237.111 742.953 237.831 742.54C238.551 742.113 239.111 741.513 239.511 740.74C239.925 739.953 240.131 739.047 240.131 738.02C240.131 736.993 239.925 736.093 239.511 735.32C239.111 734.547 238.551 733.953 237.831 733.54C237.111 733.127 236.291 732.92 235.371 732.92C234.451 732.92 233.631 733.127 232.911 733.54C232.191 733.953 231.625 734.547 231.211 735.32C230.811 736.093 230.611 736.993 230.611 738.02C230.611 739.047 230.811 739.953 231.211 740.74C231.625 741.513 232.191 742.113 232.911 742.54C233.631 742.953 234.451 743.16 235.371 743.16ZM237.431 728.12L233.011 730.3V728.62L237.431 726.18V728.12ZM251.095 738.06L255.415 745H252.855L249.715 739.96L246.775 745H244.235L248.555 738.06L244.215 731.1H246.775L249.935 736.18L252.895 731.1H255.435L251.095 738.06ZM260.198 731.1V745H257.918V731.1H260.198ZM277.831 731.1V745H275.551V735.48L271.311 745H269.731L265.471 735.48V745H263.191V731.1H265.651L270.531 742L275.391 731.1H277.831ZM287.168 745.14C285.875 745.14 284.681 744.84 283.588 744.24C282.508 743.627 281.648 742.78 281.008 741.7C280.381 740.607 280.068 739.38 280.068 738.02C280.068 736.66 280.381 735.44 281.008 734.36C281.648 733.28 282.508 732.44 283.588 731.84C284.681 731.227 285.875 730.92 287.168 730.92C288.475 730.92 289.668 731.227 290.748 731.84C291.841 732.44 292.701 733.28 293.328 734.36C293.955 735.44 294.268 736.66 294.268 738.02C294.268 739.38 293.955 740.607 293.328 741.7C292.701 742.78 291.841 743.627 290.748 744.24C289.668 744.84 288.475 745.14 287.168 745.14ZM287.168 743.16C288.088 743.16 288.908 742.953 289.628 742.54C290.348 742.113 290.908 741.513 291.308 740.74C291.721 739.953 291.928 739.047 291.928 738.02C291.928 736.993 291.721 736.093 291.308 735.32C290.908 734.547 290.348 733.953 289.628 733.54C288.908 733.127 288.088 732.92 287.168 732.92C286.248 732.92 285.428 733.127 284.708 733.54C283.988 733.953 283.421 734.547 283.008 735.32C282.608 736.093 282.408 736.993 282.408 738.02C282.408 739.047 282.608 739.953 283.008 740.74C283.421 741.513 283.988 742.113 284.708 742.54C285.428 742.953 286.248 743.16 287.168 743.16Z" fill="white"/>
</g>
</g>
<defs>
<filter id="filter0_d_161_9" x="163" y="711" width="164" height="59" filterUnits="userSpaceOnUse" color-interpolation-filters="sRGB">
<feFlood flood-opacity="0" result="BackgroundImageFix"/>
<feColorMatrix in="SourceAlpha" type="matrix" values="0 0 0 0 0 0 0 0 0 0 0 0 0 0 0 0 0 0 127 0" result="hardAlpha"/>
<feOffset dx="-5" dy="3"/>
<feGaussianBlur stdDeviation="3.5"/>
<feComposite in2="hardAlpha" operator="out"/>
<feColorMatrix type="matrix" values="0 0 0 0 0 0 0 0 0 0 0 0 0 0 0 0 0 0 0.25 0"/>
<feBlend mode="normal" in2="BackgroundImageFix" result="effect1_dropShadow_161_9"/>
<feBlend mode="normal" in="SourceGraphic" in2="effect1_dropShadow_161_9" result="shape"/>
</filter>
<clipPath id="clip0_161_9">
<rect width="360" height="800" fill="white"/>
</clipPath>
</defs>
</svg>
